<?xml version="1.0" standalone="no"?>
<!DOCTYPE svg PUBLIC "-//W3C//DTD SVG 20010904//EN"
 "http://www.w3.org/TR/2001/REC-SVG-20010904/DTD/svg10.dtd">
<svg version="1.0" xmlns="http://www.w3.org/2000/svg"
 width="500.000000pt" height="500.000000pt" viewBox="0 0 500.000000 500.000000"
 preserveAspectRatio="xMidYMid meet">
<metadata>
Created by potrace 1.14, written by Peter Selinger 2001-2017
</metadata>
<g transform="translate(0.000000,500.000000) scale(0.100000,-0.100000)"
fill="#000000" stroke="none">
<path d="M1377 3893 c-6 -6 -138 -14 -217 -12 -115 1 -111 1 -145 -4 -16 -3
-51 -5 -76 -6 -29 -1 -54 -8 -67 -20 -16 -13 -52 -22 -134 -31 -119 -13 -229
-37 -239 -53 -4 -6 -27 -11 -50 -12 -61 -3 -93 -18 -123 -57 -24 -32 -27 -78
-5 -78 5 0 9 -8 9 -18 0 -11 -18 -27 -48 -43 -40 -22 -47 -30 -45 -54 1 -15 9
-35 18 -45 17 -19 21 -70 4 -70 -6 0 -9 -6 -6 -12 2 -7 0 -25 -4 -40 -9 -33 8
-55 49 -64 51 -11 70 -22 67 -41 -2 -10 -4 -18 -5 -18 -1 0 -3 -16 -4 -37 -2
-20 -10 -44 -20 -53 -15 -15 -48 -71 -46 -77 1 -2 -2 -11 -6 -22 -4 -11 -2
-21 7 -27 11 -8 9 -14 -13 -34 -16 -13 -36 -29 -45 -34 -17 -10 -17 -12 0 -22
11 -7 16 -17 12 -29 -3 -10 -1 -21 5 -25 13 -8 3 -67 -13 -77 -8 -5 -6 -12 8
-22 11 -9 15 -16 8 -16 -28 0 19 -80 48 -80 4 0 6 -31 6 -70 -2 -69 1 -75 34
-72 3 1 7 -19 7 -43 2 -40 20 -106 21 -77 1 17 28 15 35 -4 9 -22 8 -24 -9
-24 -21 0 -19 -39 2 -47 10 -4 21 -11 25 -17 4 -7 9 -4 13 6 5 14 10 12 33 -9
20 -18 23 -26 13 -32 -9 -6 -6 -10 11 -16 19 -6 20 -8 6 -12 -11 -3 -18 -14
-18 -30 0 -16 -7 -27 -20 -30 -14 -4 -17 -10 -12 -22 11 -25 8 -57 -8 -76 -11
-13 -11 -18 -1 -24 10 -7 8 -12 -7 -23 -11 -7 -24 -26 -28 -42 -3 -15 -13 -30
-20 -33 -11 -4 -11 -9 1 -27 8 -13 12 -26 9 -29 -4 -4 -1 -13 5 -21 8 -10 9
-16 1 -21 -6 -4 -2 -14 12 -26 19 -16 21 -20 8 -28 -8 -6 -11 -13 -7 -17 4 -4
2 -13 -4 -21 -9 -10 -8 -13 2 -13 10 -1 8 -5 -5 -15 -10 -8 -22 -12 -27 -9 -4
2 -7 -9 -7 -26 1 -22 9 -37 30 -51 15 -11 28 -27 28 -35 0 -12 4 -13 22 -3 18
10 20 9 15 -4 -3 -9 -1 -17 5 -19 16 -6 26 -85 22 -180 -3 -75 -1 -91 14 -106
32 -32 63 -90 52 -97 -7 -4 -6 -13 2 -28 6 -12 11 -23 10 -24 -10 -15 2 -29
22 -26 13 3 27 0 31 -7 5 -8 10 -8 21 1 11 9 18 8 30 -2 13 -10 17 -10 25 2 5
8 9 10 9 5 0 -6 6 -3 13 6 12 16 34 23 117 37 25 5 41 9 35 10 -15 2 18 21 38
21 10 0 17 -8 17 -20 0 -14 5 -18 18 -14 9 3 6 -2 -8 -11 -14 -9 -17 -14 -7
-11 12 4 17 0 17 -14 0 -29 15 -32 39 -6 15 16 29 22 43 18 15 -4 17 -7 6 -13
-8 -6 1 -9 27 -10 22 0 73 -2 112 -4 40 -1 71 1 68 5 -2 4 -19 7 -36 8 -17 0
-36 5 -41 10 -9 9 -1 11 57 14 45 3 45 13 0 28 -19 6 -35 16 -35 21 0 6 -8 8
-17 5 -10 -3 -24 -2 -32 3 -19 12 -3 34 20 28 21 -6 26 8 7 17 -7 4 25 4 72 2
78 -4 83 -3 55 9 -24 11 -26 14 -10 16 17 1 16 2 -5 9 -20 7 -16 8 23 9 27 1
47 -3 47 -10 0 -6 7 -3 16 5 17 17 34 21 34 8 0 -4 -5 -13 -12 -20 -9 -9 -2
-12 35 -12 26 0 52 6 59 14 12 12 38 6 58 -14 8 -8 160 -8 160 0 0 4 -11 5
-24 3 -13 -3 -27 0 -30 6 -5 7 3 11 21 11 23 0 25 2 13 11 -11 8 13 9 85 5 74
-4 101 -10 108 -21 4 -8 17 -15 28 -15 11 0 18 4 14 9 -3 6 3 14 12 20 15 9
12 11 -17 12 -108 4 -135 8 -138 18 -2 6 -11 11 -20 11 -15 0 -15 -2 -2 -10
11 -7 8 -10 -16 -10 -21 0 -31 5 -31 15 0 8 7 15 16 16 34 1 168 -2 211 -6 25
-2 109 -9 186 -16 124 -11 147 -10 189 3 26 9 57 15 69 13 11 -2 55 -6 96 -10
41 -3 89 -8 105 -11 17 -3 48 -7 70 -10 22 -2 49 -6 60 -8 11 -3 40 -5 64 -5
36 -1 41 -3 32 -15 -15 -18 1 -24 92 -33 41 -3 76 -12 82 -20 15 -20 123 -37
140 -23 18 15 92 4 102 -15 11 -18 101 -36 110 -22 4 6 1 13 -5 15 -7 2 -10 8
-6 13 6 10 8 10 -61 15 -71 5 -115 14 -115 22 0 4 18 7 40 6 21 0 37 3 34 8
-3 4 -1 8 5 8 5 0 11 -5 13 -10 2 -6 32 -15 68 -21 101 -16 109 -17 119 -24 6
-3 41 -7 78 -10 38 -2 59 0 48 4 -20 8 -20 8 0 14 39 13 277 -21 297 -41 9 -9
5 -10 -11 -7 -13 2 -28 -3 -38 -14 -19 -22 -71 -18 -90 7 -8 10 -13 11 -13 4
0 -10 -5 -10 -20 -2 -11 6 -19 16 -17 23 2 12 -3 12 -60 9 -22 -2 -25 -4 -13
-12 11 -7 7 -10 -20 -11 -32 -1 -31 -2 14 -11 26 -5 54 -15 61 -22 15 -15 91
-30 106 -20 5 3 15 1 22 -5 7 -5 36 -11 65 -13 42 -3 52 -1 47 10 -4 11 2 12
28 7 23 -4 28 -3 18 4 -12 8 -10 11 10 15 28 7 97 2 106 -8 3 -3 22 -6 40 -6
57 0 18 25 -57 37 -62 10 -63 10 -20 12 33 1 41 4 30 11 -16 10 -12 11 58 13
15 1 30 5 33 10 4 5 24 11 45 13 22 3 50 8 64 11 14 3 28 6 31 5 3 -1 12 10
19 23 7 14 21 25 31 25 10 0 20 4 24 9 6 10 163 61 187 61 8 0 24 11 36 25 12
14 30 25 39 25 15 0 16 2 3 10 -24 16 8 32 34 18 12 -6 18 -7 14 -3 -4 4 -1
13 8 20 13 9 8 11 -27 13 -23 2 -45 -2 -49 -8 -5 -8 -9 -4 -12 8 -5 16 1 21
27 26 18 4 36 13 39 21 3 8 16 15 28 15 13 0 30 5 38 10 11 7 5 10 -25 11 -22
0 -49 2 -60 5 -11 2 -44 6 -73 10 -55 7 -82 24 -38 24 14 0 26 5 26 10 0 6 8
10 18 10 13 0 14 2 3 9 -9 6 -10 10 -2 12 7 3 -15 4 -48 4 -49 0 -63 4 -75 20
-9 11 -15 25 -15 30 0 6 3 4 6 -2 2 -7 14 -13 24 -13 11 0 17 5 14 10 -3 6 4
10 17 10 18 0 20 -2 8 -10 -12 -8 -11 -10 7 -10 12 0 23 4 25 9 2 6 21 6 46 2
23 -5 45 -4 48 0 3 5 -11 9 -31 9 -22 0 -34 4 -30 10 3 6 3 10 -2 10 -9 1 -65
7 -132 16 -31 4 -40 9 -33 16 14 14 -27 48 -57 48 -11 0 -28 11 -37 25 -17 27
-58 34 -68 13 -3 -7 -4 -4 -3 6 2 15 -8 22 -43 31 -41 10 -43 12 -21 19 16 6
26 4 32 -5 5 -8 9 -11 9 -7 0 4 18 1 41 -7 32 -12 43 -12 53 -2 11 10 11 16
-1 34 -13 19 -13 23 -2 24 18 0 -25 19 -75 33 -50 14 -56 31 -15 45 41 14 45
14 64 -5 22 -22 31 -10 15 20 -8 16 -18 22 -28 18 -11 -4 -9 2 6 18 12 13 22
30 22 37 0 7 5 13 10 13 6 0 10 8 10 17 0 9 9 27 21 39 11 12 22 28 23 35 2 8
6 21 10 30 4 9 6 20 4 25 -1 5 6 24 15 42 10 17 14 32 9 32 -10 0 -9 30 0 46
4 6 1 22 -7 37 -8 15 -11 27 -7 28 4 0 -9 6 -28 14 l-35 13 27 7 c15 4 29 13
32 22 4 10 13 12 28 7 22 -6 22 -6 -2 14 -14 12 -20 21 -14 22 7 0 9 13 5 37
-5 27 -12 39 -26 41 -11 2 -24 8 -29 13 -13 12 81 0 124 -15 45 -17 140 -30
121 -17 -19 12 53 33 86 25 13 -4 23 -4 23 -2 0 6 -188 54 -242 63 -21 3 -38
10 -38 15 0 15 50 12 102 -7 55 -19 71 -12 37 16 -27 23 -21 24 54 12 69 -11
58 3 -23 29 -71 23 -97 40 -63 40 16 1 15 3 -4 19 -21 17 -21 20 -5 26 19 7
21 4 -37 44 -11 8 -18 18 -16 22 3 3 -16 12 -41 19 -45 13 -46 13 -23 26 16 9
42 12 79 8 l55 -6 -30 20 c-17 10 -55 27 -85 37 -101 33 -199 85 -161 85 10 0
9 11 -3 48 -4 12 -13 22 -21 22 -7 0 -15 3 -17 8 -1 4 -15 14 -30 22 -58 32
-167 125 -155 132 6 4 17 2 23 -3 18 -15 44 17 44 52 0 30 1 30 45 27 51 -3
62 14 14 23 -17 4 -34 12 -38 17 -9 15 -99 58 -151 73 -25 7 -50 18 -55 25
-16 18 -83 34 -166 38 -41 3 -132 16 -204 30 -246 47 -351 66 -620 110 -279
46 -286 47 -445 66 -52 7 -151 20 -220 30 -69 10 -177 26 -240 35 -63 9 -135
20 -160 25 -25 5 -83 12 -130 15 -119 7 -260 16 -293 19 -15 1 -29 1 -30 -1z
m-1067 -1153 c0 -5 -7 -10 -16 -10 -8 0 -12 5 -9 10 3 6 10 10 16 10 5 0 9 -4
9 -10z m120 -270 c0 -5 -7 -7 -15 -4 -8 4 -12 10 -9 15 6 11 24 2 24 -11z
m-40 -40 c0 -5 -5 -10 -11 -10 -5 0 -7 5 -4 10 3 6 8 10 11 10 2 0 4 -4 4 -10z
m63 -77 c-7 -2 -19 -2 -25 0 -7 3 -2 5 12 5 14 0 19 -2 13 -5z m3815 -541 c2
-7 -2 -10 -12 -6 -9 3 -16 11 -16 16 0 13 23 5 28 -10z m-2715 -489 c-7 -2
-19 -2 -25 0 -7 3 -2 5 12 5 14 0 19 -2 13 -5z m-303 -41 c-16 -6 -80 8 -80
17 0 4 20 3 45 -3 25 -6 41 -12 35 -14z m180 18 c0 -5 -4 -10 -10 -10 -5 0
-10 5 -10 10 0 6 5 10 10 10 6 0 10 -4 10 -10z m113 3 c-7 -2 -19 -2 -25 0 -7
3 -2 5 12 5 14 0 19 -2 13 -5z m1847 -43 c12 -8 10 -10 -10 -9 -14 0 -34 4
-45 9 -17 7 -16 9 10 9 17 0 37 -4 45 -9z m550 -80 c12 -8 11 -10 -7 -10 -13
0 -23 5 -23 10 0 13 11 13 30 0z m-55 -30 c18 -8 17 -9 -7 -9 -16 -1 -28 4
-28 9 0 12 8 12 35 0z"/>
<path d="M4418 2483 c7 -3 16 -2 19 1 4 3 -2 6 -13 5 -11 0 -14 -3 -6 -6z"/>
<path d="M4315 1910 c27 -12 43 -12 25 0 -8 5 -22 9 -30 9 -10 0 -8 -3 5 -9z"/>
<path d="M4687 1458 c-7 -4 2 -8 23 -8 19 0 42 5 50 10 11 8 5 10 -23 8 -21
-1 -43 -6 -50 -10z"/>
<path d="M2315 1330 c-3 -5 -1 -10 4 -10 6 0 11 5 11 10 0 6 -2 10 -4 10 -3 0
-8 -4 -11 -10z"/>
<path d="M1338 1263 c7 -3 16 -2 19 1 4 3 -2 6 -13 5 -11 0 -14 -3 -6 -6z"/>
<path d="M897 1179 c7 -7 15 -10 18 -7 3 3 -2 9 -12 12 -14 6 -15 5 -6 -5z"/>
<path d="M3488 1183 c7 -3 16 -2 19 1 4 3 -2 6 -13 5 -11 0 -14 -3 -6 -6z"/>
</g>
</svg>
